<svg xmlns="http://www.w3.org/2000/svg" viewBox="0 0 32 32">
  <path fill="#34584f" fill-rule="evenodd" clip-rule="evenodd" d="M7 2a2.5 2.5 0 0 1 2.5-2.5h13A2.5 2.5 0 0 1 25 2v28a2.5 2.5 0 0 1-2.5 2.5h-13A2.5 2.5 0 0 1 7 30V2Zm2.5.5a.5.5 0 0 0-.5.5v26a.5.5 0 0 0 .5.5h13a.5.5 0 0 0 .5-.5V2.5a.5.5 0 0 0-.5-.5h-13Z"/>
  <path fill="#34584f" fill-rule="evenodd" clip-rule="evenodd" d="M12.4 15.6a1.1 1.1 0 0 1 0-1.55l1.55-1.55a1.1 1.1 0 0 1 1.55 0l3.5 3.5 7.35-7.35a1.1 1.1 0 0 1 1.55 0l1.55 1.55a1.1 1.1 0 0 1 0 1.55l-8.5 8.5a1.1 1.1 0 0 1-1.55 0l-5.05-5.05Z"/>
</svg>
